<?xml version="1.0" encoding="utf-8"?>
<!-- Generator: Adobe Illustrator 22.0.1, SVG Export Plug-In . SVG Version: 6.00 Build 0)  -->
<svg version="1.1" id="Layer_1" xmlns="http://www.w3.org/2000/svg" xmlns:xlink="http://www.w3.org/1999/xlink" x="0px" y="0px"
	 viewBox="0 0 23.8 18.9" style="enable-background:new 0 0 23.8 18.9;" xml:space="preserve">
<style type="text/css">
	.st0{fill:url(#XMLID_4_);}
	.st1{fill:#BDC3C7;}
	.st2{fill:#7F8C8D;}
	.st3{fill:url(#XMLID_5_);}
	.st4{fill:#007E87;}
</style>
<g>
	<g>
		<linearGradient id="XMLID_4_" gradientUnits="userSpaceOnUse" x1="8.8704" y1="9.7341" x2="20.0999" y2="9.7341">
			<stop  offset="0" style="stop-color:#F4982C"/>
			<stop  offset="1" style="stop-color:#F58B1F"/>
		</linearGradient>
		<path id="XMLID_928_" class="st0" d="M16.3,3.9l-7.5,7.5l0.6,0.6l3.7,3.7c0.3-1,0.4-2,0.2-3L18,8c0.7,0,1.5-0.2,2.1-0.4l-3.2-3.2
			L16.3,3.9z"/>
		<path id="XMLID_927_" class="st1" d="M8.9,11.3l-1.1,1.1l-2.3,2.3l-1.1,1.1l-0.6,1.7l1.1-1.1l3.4-3.4l1.1-1.1L8.9,11.3z"/>
		<path id="XMLID_926_" class="st2" d="M9.4,11.9l-1.1,1.1L6,15.4l-1.1,1.1l-1.1,1.1l1.7-0.6l1.1-1.1l2.3-2.3l1.1-1.1L9.4,11.9z"/>
		<linearGradient id="XMLID_5_" gradientUnits="userSpaceOnUse" x1="5.7621" y1="6.5898" x2="16.9199" y2="6.5898">
			<stop  offset="0" style="stop-color:#BA2602"/>
			<stop  offset="1" style="stop-color:#D23204"/>
		</linearGradient>
		<path id="XMLID_925_" class="st3" d="M13.7,1.3c-0.2,0.7-0.4,1.4-0.4,2.1L8.8,8c-1-0.2-2-0.1-3,0.2l3.7,3.7l7.5-7.5L13.7,1.3z"/>
		<polygon id="XMLID_923_" class="st4" points="1.5,9.7 0,11.6 1.5,13.5 0.9,11.6 		"/>
		<polygon id="XMLID_921_" class="st4" points="22.3,13.5 23.8,11.5 22.3,9.7 22.9,11.6 		"/>
	</g>
</g>
</svg>
